<svg width="18" height="18" viewBox="0 0 18 18" fill="none" xmlns="http://www.w3.org/2000/svg">
<path d="M4.83329 8.16667V9.83333H13.1666V8.16667H4.83329ZM8.99996 0.666666C4.39996 0.666666 0.666626 4.4 0.666626 9C0.666626 13.6 4.39996 17.3333 8.99996 17.3333C13.6 17.3333 17.3333 13.6 17.3333 9C17.3333 4.4 13.6 0.666666 8.99996 0.666666ZM8.99996 15.6667C5.32496 15.6667 2.33329 12.675 2.33329 9C2.33329 5.325 5.32496 2.33333 8.99996 2.33333C12.675 2.33333 15.6666 5.325 15.6666 9C15.6666 12.675 12.675 15.6667 8.99996 15.6667Z" fill="#4C4E64" fill-opacity="0.54"/>
</svg>
