<svg width="20" height="11" fill="none" xmlns="http://www.w3.org/2000/svg"><path d="M3.35 6c1.19 0 1.42 1 3.33 1 1.95 0 2.09-1 3.33-1 1.19 0 1.42 1 3.33 1 1.95 0 2.09-1 3.33-1 1.19 0 1.4.98 3.31 1V5c-1.19 0-1.42-1-3.33-1-1.95 0-2.09 1-3.33 1-1.19 0-1.42-1-3.33-1C8.04 4 7.9 5 6.66 5 5.47 5 5.24 4 3.33 4 1.38 4 1.24 5 0 5v2c1.9 0 2.17-1 3.35-1Zm13.32 2c-1.95 0-2.09 1-3.33 1-1.19 0-1.42-1-3.33-1-1.95 0-2.1 1-3.34 1-1.24 0-1.38-1-3.33-1C1.39 8 1.24 9 0 9v2c1.95 0 2.11-1 3.34-1 1.24 0 1.38 1 3.33 1 1.95 0 2.1-1 3.34-1 1.19 0 1.42 1 3.33 1 1.94 0 2.09-1 3.33-1 1.19 0 1.42 1 3.33 1V9c-1.24 0-1.38-1-3.33-1ZM3.35 2c1.19 0 1.42 1 3.33 1 1.95 0 2.09-1 3.33-1 1.19 0 1.42 1 3.33 1 1.95 0 2.09-1 3.33-1 1.19 0 1.4.98 3.31 1V1c-1.19 0-1.42-1-3.33-1-1.95 0-2.09 1-3.33 1-1.19 0-1.42-1-3.33-1C8.04 0 7.9 1 6.66 1 5.47 1 5.24 0 3.33 0 1.38 0 1.24 1 0 1v2c1.9 0 2.17-1 3.35-1Z" fill="#fff"/></svg>