<svg width="20" height="24" viewBox="0 0 20 24" fill="none" xmlns="http://www.w3.org/2000/svg">
<path d="M16.7001 12.4005C16.42 12.2405 16.13 12.1105 15.84 12.0005C16.13 11.8905 16.42 11.7605 16.7001 11.6005C18.6201 10.4905 19.6901 8.48055 19.7001 6.41055C17.91 5.38055 15.63 5.30055 13.7 6.41055C13.42 6.57055 13.16 6.76055 12.92 6.95055C12.97 6.64055 13 6.32055 13 6.00055C13 3.78055 11.79 1.85055 10 0.810547C8.21005 1.85055 7.00005 3.78055 7.00005 6.00055C7.00005 6.32055 7.03005 6.64055 7.08005 6.95055C6.84005 6.75055 6.58005 6.56055 6.30005 6.40055C4.38005 5.29055 2.10005 5.37055 0.300049 6.40055C0.300049 8.47055 1.37005 10.4805 3.30005 11.5905C3.58005 11.7505 3.87005 11.8805 4.16005 11.9905C3.87005 12.1005 3.58005 12.2305 3.30005 12.3905C1.38005 13.5005 0.310049 15.5105 0.300049 17.5805C2.09005 18.6105 4.37005 18.6905 6.30005 17.5805C6.58005 17.4205 6.84005 17.2305 7.08005 17.0405C7.03005 17.3605 7.00005 17.6805 7.00005 18.0005C7.00005 20.2205 8.21005 22.1505 10 23.1905C11.79 22.1505 13 20.2205 13 18.0005C13 17.6805 12.97 17.3605 12.92 17.0505C13.16 17.2505 13.42 17.4305 13.7 17.5905C15.62 18.7005 17.9001 18.6205 19.7001 17.5905C19.6901 15.5205 18.6201 13.5105 16.7001 12.4005ZM10 16.0005C7.79005 16.0005 6.00005 14.2105 6.00005 12.0005C6.00005 9.79055 7.79005 8.00055 10 8.00055C12.21 8.00055 14 9.79055 14 12.0005C14 14.2105 12.21 16.0005 10 16.0005Z" fill="#4AA1B9"/>
</svg>
